<?xml version="1.0" encoding="UTF-8"?>
<svg width="640" height="480" viewBox="0 0 640 480" fill="none" xmlns="http://www.w3.org/2000/svg">
  <defs>
    <linearGradient id="sareeBg1" x1="0" y1="0" x2="1" y2="1">
      <stop offset="0" stop-color="#F7F5FA"/>
      <stop offset="1" stop-color="#EDE7FF"/>
    </linearGradient>
    <linearGradient id="sareeBody1" x1="0" y1="0" x2="1" y2="1">
      <stop offset="0" stop-color="#E1BEE7"/>
      <stop offset="1" stop-color="#BA68C8"/>
    </linearGradient>
  </defs>

  <rect width="640" height="480" rx="32" fill="url(#sareeBg1)"/>

  <!-- Saree drape -->
  <path d="M210 130L320 120L420 140L400 360L280 370L210 350V130Z" fill="url(#sareeBody1)"/>

  <!-- Pallu fold -->
  <path d="M320 120L420 140L400 260C368 250 344 246 320 246V120Z" fill="#CE93D8" fill-opacity="0.72"/>

  <!-- Border -->
  <path d="M210 150L420 160" stroke="#F3E5F5" stroke-width="6" stroke-linecap="round"/>
  <path d="M220 330L390 344" stroke="#F3E5F5" stroke-width="6" stroke-linecap="round"/>

  <!-- Simple motif -->
  <circle cx="250" cy="210" r="6" fill="#F3E5F5"/>
  <circle cx="280" cy="230" r="5" fill="#F3E5F5"/>
  <circle cx="310" cy="210" r="4" fill="#F3E5F5"/>
  <circle cx="340" cy="230" r="5" fill="#F3E5F5"/>
  <circle cx="370" cy="210" r="6" fill="#F3E5F5"/>
</svg>

