<?xml version="1.0" encoding="UTF-8"?>
<svg width="640" height="480" viewBox="0 0 640 480" fill="none" xmlns="http://www.w3.org/2000/svg">
  <defs>
    <linearGradient id="dress2Bg" x1="0" y1="0" x2="1" y2="1">
      <stop offset="0" stop-color="#E3F2FD"/>
      <stop offset="1" stop-color="#FCE4EC"/>
    </linearGradient>
    <linearGradient id="dress2Body" x1="0" y1="0" x2="1" y2="1">
      <stop offset="0" stop-color="#FFCDD2"/>
      <stop offset="1" stop-color="#EF9A9A"/>
    </linearGradient>
  </defs>

  <rect width="640" height="480" rx="32" fill="url(#dress2Bg)"/>

  <!-- Simple floral midi dress -->
  <path d="M240 150L272 140L292 176H348L368 140L400 150L382 360H258L240 150Z" fill="url(#dress2Body)"/>

  <!-- Neck -->
  <path d="M284 150C284 138 296 130 320 130C344 130 356 138 356 150V176H284V150Z" fill="#FFEBEE"/>

  <!-- Tiny floral dots -->
  <circle cx="276" cy="210" r="4" fill="#FBE9E7"/>
  <circle cx="304" cy="232" r="4" fill="#FBE9E7"/>
  <circle cx="332" cy="214" r="4" fill="#FBE9E7"/>
  <circle cx="360" cy="236" r="4" fill="#FBE9E7"/>
  <circle cx="292" cy="260" r="4" fill="#FBE9E7"/>
  <circle cx="348" cy="270" r="4" fill="#FBE9E7"/>
</svg>

