<?xml version="1.0" encoding="UTF-8"?>
<svg width="640" height="480" viewBox="0 0 640 480" fill="none" xmlns="http://www.w3.org/2000/svg">
  <defs>
    <linearGradient id="kurtaBg1" x1="0" y1="0" x2="1" y2="1">
      <stop offset="0" stop-color="#F7F5FA"/>
      <stop offset="1" stop-color="#E6F2FF"/>
    </linearGradient>
    <linearGradient id="kurtaBody1" x1="0" y1="0" x2="1" y2="1">
      <stop offset="0" stop-color="#B3E5FC"/>
      <stop offset="1" stop-color="#81D4FA"/>
    </linearGradient>
  </defs>

  <rect width="640" height="480" rx="32" fill="url(#kurtaBg1)"/>

  <!-- Kurta body -->
  <path d="M216 154L248 140L272 180H368L392 140L424 154L404 360H232L216 154Z" fill="url(#kurtaBody1)"/>

  <!-- Neck placket -->
  <rect x="308" y="180" width="24" height="120" rx="10" fill="#E1F5FE"/>
  <circle cx="320" cy="198" r="3" fill="#4FC3F7"/>
  <circle cx="320" cy="216" r="3" fill="#4FC3F7"/>
  <circle cx="320" cy="234" r="3" fill="#4FC3F7"/>
  <circle cx="320" cy="252" r="3" fill="#4FC3F7"/>

  <!-- Neck opening -->
  <path d="M288 154C288 142 300 132 320 132C340 132 352 142 352 154V180H288V154Z" fill="#E1F5FE"/>

  <!-- Subtle border pattern -->
  <path d="M244 210C252 224 262 232 274 232H366C378 232 388 224 396 210" stroke="#4FC3F7" stroke-width="3" stroke-linecap="round" stroke-dasharray="8 8"/>
</svg>

