<?xml version="1.0" encoding="UTF-8"?>
<svg width="640" height="480" viewBox="0 0 640 480" fill="none" xmlns="http://www.w3.org/2000/svg">
  <defs>
    <linearGradient id="jewelBg1" x1="0" y1="0" x2="1" y2="1">
      <stop offset="0" stop-color="#FDE5EF"/>
      <stop offset="1" stop-color="#FFF8E1"/>
    </linearGradient>
    <linearGradient id="chain1" x1="0" y1="0" x2="1" y2="0">
      <stop offset="0" stop-color="#FFE082"/>
      <stop offset="1" stop-color="#FFCA28"/>
    </linearGradient>
  </defs>

  <rect width="640" height="480" rx="32" fill="url(#jewelBg1)"/>

  <!-- Necklace curve -->
  <path d="M160 150C188 220 244 268 320 268C396 268 452 220 480 150" stroke="url(#chain1)" stroke-width="8" stroke-linecap="round"/>

  <!-- Left pendant -->
  <circle cx="252" cy="246" r="18" fill="#FFF8E1" stroke="#FFCA28" stroke-width="4"/>
  <circle cx="252" cy="246" r="8" fill="#FFB300"/>

  <!-- Center pendant -->
  <circle cx="320" cy="268" r="22" fill="#FFF8E1" stroke="#FFCA28" stroke-width="4"/>
  <circle cx="320" cy="268" r="10" fill="#FFB300"/>

  <!-- Right pendant -->
  <circle cx="388" cy="246" r="18" fill="#FFF8E1" stroke="#FFCA28" stroke-width="4"/>
  <circle cx="388" cy="246" r="8" fill="#FFB300"/>

  <!-- Tiny sparkle -->
  <path d="M340 210L344 220L354 224L344 228L340 238L336 228L326 224L336 220L340 210Z" fill="#FFFFFF" fill-opacity="0.9"/>
</svg>

